<svg width="43" height="43" viewBox="0 0 43 43" fill="none" xmlns="http://www.w3.org/2000/svg">
<circle cx="21.0178" cy="21.0178" r="19.5" transform="rotate(-87.0045 21.0178 21.0178)" stroke="white"/>
<path d="M20.8871 19.987C18.6171 19.397 17.8871 18.787 17.8871 17.837C17.8871 16.747 18.8971 15.987 20.5871 15.987C22.0071 15.987 22.7171 16.527 22.9771 17.387C23.0971 17.787 23.4271 18.087 23.8471 18.087H24.1471C24.8071 18.087 25.2771 17.437 25.0471 16.817C24.6271 15.637 23.6471 14.657 22.0871 14.277V13.587C22.0871 12.757 21.4171 12.087 20.5871 12.087C19.7571 12.087 19.0871 12.757 19.0871 13.587V14.247C17.1471 14.667 15.5871 15.927 15.5871 17.857C15.5871 20.167 17.4971 21.317 20.2871 21.987C22.7871 22.587 23.2871 23.467 23.2871 24.397C23.2871 25.087 22.7971 26.187 20.5871 26.187C18.9371 26.187 18.0871 25.597 17.7571 24.757C17.6071 24.367 17.2671 24.087 16.8571 24.087H16.5771C15.9071 24.087 15.4371 24.767 15.6871 25.387C16.2571 26.777 17.5871 27.597 19.0871 27.917V28.587C19.0871 29.417 19.7571 30.087 20.5871 30.087C21.4171 30.087 22.0871 29.417 22.0871 28.587V27.937C24.0371 27.567 25.5871 26.437 25.5871 24.387C25.5871 21.547 23.1571 20.577 20.8871 19.987Z" fill="#FF2CDF"/>
</svg>
