<svg width="43" height="43" viewBox="0 0 43 43" fill="none" xmlns="http://www.w3.org/2000/svg">
<circle cx="21.0178" cy="21.0178" r="19.5" transform="rotate(-87.0045 21.0178 21.0178)" stroke="white"/>
<path d="M26.0757 11.8997C25.603 11.6156 24.9917 11.768 24.7076 12.2408L16.7732 25.4321L15.4208 20.0082C15.2878 19.4745 14.7423 19.1467 14.2086 19.2798C13.675 19.4129 13.3472 19.9584 13.4803 20.492L15.4156 28.2544C15.5487 28.7881 16.0942 29.1158 16.6278 28.9828L24.3902 27.0474C24.9239 26.9143 25.2516 26.3688 25.1186 25.8352C24.9855 25.3015 24.44 24.9737 23.9064 25.1068L18.4824 26.4591L26.4144 13.2581C26.6912 12.7974 26.5364 12.1765 26.0757 11.8997Z" fill="#FF2CDF"/>
</svg>
