<svg width="18" height="18" viewBox="0 0 18 18" fill="none" xmlns="http://www.w3.org/2000/svg">
<path d="M12.5 16.4165C12.0858 16.4165 11.75 16.7523 11.75 17.1665C11.75 17.5807 12.0858 17.9165 12.5 17.9165V16.4165ZM17.9166 11.3332C17.9166 10.919 17.5809 10.5832 17.1666 10.5832C16.7524 10.5832 16.4166 10.919 16.4166 11.3332H17.9166ZM5.49998 17.9165C5.91419 17.9165 6.24998 17.5807 6.24998 17.1665C6.24998 16.7523 5.91419 16.4165 5.49998 16.4165V17.9165ZM1.58331 11.3332C1.58331 10.919 1.24753 10.5832 0.833313 10.5832C0.419099 10.5832 0.083313 10.919 0.083313 11.3332H1.58331ZM5.49998 1.58317C5.91419 1.58317 6.24998 1.24738 6.24998 0.833171C6.24998 0.418958 5.91419 0.0831711 5.49998 0.0831711V1.58317ZM0.083313 6.6665C0.083313 7.08072 0.419099 7.4165 0.833313 7.4165C1.24753 7.4165 1.58331 7.08072 1.58331 6.6665H0.083313ZM12.5 0.0831711C12.0858 0.0831711 11.75 0.418958 11.75 0.833171C11.75 1.24738 12.0858 1.58317 12.5 1.58317V0.0831711ZM16.4166 6.6665C16.4166 7.08072 16.7524 7.4165 17.1666 7.4165C17.5809 7.4165 17.9166 7.08072 17.9166 6.6665H16.4166ZM12.5 17.9165C15.4915 17.9165 17.9166 15.4914 17.9166 12.4998H16.4166C16.4166 14.663 14.6631 16.4165 12.5 16.4165V17.9165ZM17.9166 12.4998V11.3332H16.4166V12.4998H17.9166ZM5.49998 16.4165C3.33686 16.4165 1.58331 14.663 1.58331 12.4998H0.083313C0.083313 15.4914 2.50844 17.9165 5.49998 17.9165V16.4165ZM1.58331 12.4998V11.3332H0.083313V12.4998H1.58331ZM5.49998 0.0831711C2.50844 0.0831711 0.083313 2.5083 0.083313 5.49984H1.58331C1.58331 3.33672 3.33686 1.58317 5.49998 1.58317V0.0831711ZM0.083313 5.49984V6.6665H1.58331V5.49984H0.083313ZM12.5 1.58317C14.6631 1.58317 16.4166 3.33672 16.4166 5.49984H17.9166C17.9166 2.5083 15.4915 0.0831711 12.5 0.0831711V1.58317ZM16.4166 5.49984V6.6665H17.9166V5.49984H16.4166Z" fill="white"/>
<path d="M14.8333 8.99984H3.16663" stroke="white" stroke-width="1.5" stroke-linecap="round" stroke-linejoin="round"/>
</svg>
