<svg width="18" height="18" viewBox="0 0 18 18" fill="none" xmlns="http://www.w3.org/2000/svg">
<path fill-rule="evenodd" clip-rule="evenodd" d="M8.99999 11.3332C7.71133 11.3332 6.66666 10.2885 6.66666 8.99984C6.66666 7.71117 7.71133 6.6665 8.99999 6.6665C10.2887 6.6665 11.3333 7.71117 11.3333 8.99984C11.3333 9.61868 11.0875 10.2122 10.6499 10.6498C10.2123 11.0873 9.61883 11.3332 8.99999 11.3332Z" stroke="white" stroke-width="1.5" stroke-linecap="round" stroke-linejoin="round"/>
<path fill-rule="evenodd" clip-rule="evenodd" d="M15.2032 13.7401V12.1744C15.2032 11.7867 15.3572 11.4149 15.6313 11.1407L16.7385 10.0336C17.3094 9.46269 17.3094 8.53712 16.7385 7.96624L15.6313 6.85907C15.3572 6.58493 15.2032 6.21311 15.2032 5.82541V4.25857C15.2032 3.45123 14.5487 2.79674 13.7413 2.79674H12.1745C11.7868 2.79674 11.415 2.64272 11.1408 2.36857L10.0337 1.26141C9.46279 0.690533 8.53721 0.690533 7.96633 1.26141L6.85917 2.36857C6.58502 2.64272 6.2132 2.79674 5.8255 2.79674H4.25867C3.87076 2.79674 3.49876 2.95091 3.22458 3.22531C2.9504 3.49971 2.79652 3.87184 2.79683 4.25974V5.82541C2.79683 6.21311 2.64281 6.58493 2.36867 6.85907L1.2615 7.96624C0.690625 8.53712 0.690625 9.46269 1.2615 10.0336L2.36867 11.1407C2.64281 11.4149 2.79683 11.7867 2.79683 12.1744V13.7401C2.79683 14.5474 3.45132 15.2019 4.25867 15.2019H5.8255C6.2132 15.2019 6.58502 15.3559 6.85917 15.6301L7.96633 16.7372C8.53721 17.3081 9.46279 17.3081 10.0337 16.7372L11.1408 15.6301C11.415 15.3559 11.7868 15.2019 12.1745 15.2019H13.7402C14.1281 15.2022 14.5002 15.0483 14.7746 14.7742C15.049 14.5 15.2032 14.128 15.2032 13.7401Z" stroke="white" stroke-width="1.5" stroke-linecap="round" stroke-linejoin="round"/>
</svg>
